<svg xmlns="http://www.w3.org/2000/svg" xmlns:xlink="http://www.w3.org/1999/xlink" version="1.1" x="0px" y="0px" viewBox="0 0 80 100" enable-background="new 0 0 80 80" xml:space="preserve"><g><path fill="#000000" d="M32,67H22V13h10V67z M24,65h6V15h-6V65z"/></g><g><polygon fill="#000000" points="39,67 30,67 30,13 39,13 39,15 32,15 32,65 39,65  "/></g><g><path fill="#000000" d="M56,67H46V13h10V67z M48,65h6V15h-6V65z"/></g><g><path fill="#000000" d="M48,39H30V25h18V39z M32,37h14V27H32V37z"/></g><g><polygon fill="#000000" points="48,67 38,67 38,41 40,41 40,65 46,65 46,15 40,15 40,23 38,23 38,13 48,13  "/></g><text x="0" y="95" fill="#000000" font-size="5px" font-weight="bold" font-family="'Helvetica Neue', Helvetica, Arial-Unicode, Arial, Sans-serif">Created by Yaroslav Samoylov</text><text x="0" y="100" fill="#000000" font-size="5px" font-weight="bold" font-family="'Helvetica Neue', Helvetica, Arial-Unicode, Arial, Sans-serif">from the Noun Project</text></svg>